<svg width="40" height="40" viewBox="0 0 40 40" fill="none" xmlns="http://www.w3.org/2000/svg">
<rect width="40" height="40" rx="20" fill="#3D3D3D"/>
<path d="M12.4997 28.8359H28.4775C28.737 28.8359 28.9921 28.7685 29.2178 28.6404C29.4435 28.5123 29.632 28.3278 29.7651 28.105C29.8981 27.8822 29.9711 27.6287 29.9769 27.3693C29.9827 27.1098 29.921 26.8533 29.798 26.6248L21.8096 11.7889C21.2429 10.737 19.7344 10.737 19.1677 11.7889L11.1793 26.6248C11.0562 26.8533 10.9946 27.1098 11.0004 27.3693C11.0061 27.6287 11.0791 27.8822 11.2122 28.105C11.3452 28.3278 11.5338 28.5123 11.7595 28.6404C11.9852 28.7685 12.2402 28.8359 12.4997 28.8359V28.8359Z" stroke="white" stroke-width="1.5" stroke-linecap="round" stroke-linejoin="round"/>
<path d="M20.2189 17.0785L20.488 22.7972L20.7566 17.0808C20.7582 17.0443 20.7524 17.0078 20.7395 16.9736C20.7266 16.9393 20.7068 16.9081 20.6814 16.8818C20.656 16.8555 20.6255 16.8346 20.5918 16.8205C20.558 16.8063 20.5218 16.7992 20.4852 16.7996V16.7996C20.4492 16.7999 20.4137 16.8075 20.3808 16.8218C20.3478 16.8361 20.318 16.8568 20.2932 16.8828C20.2684 16.9088 20.249 16.9395 20.2363 16.9731C20.2235 17.0067 20.2176 17.0426 20.2189 17.0785V17.0785Z" stroke="white" stroke-width="1.5" stroke-linecap="round" stroke-linejoin="round"/>
<path d="M20.4883 26.54C20.3029 26.54 20.1216 26.4851 19.9674 26.382C19.8133 26.279 19.6931 26.1326 19.6221 25.9613C19.5512 25.79 19.5326 25.6015 19.5688 25.4196C19.605 25.2378 19.6943 25.0707 19.8254 24.9396C19.9565 24.8085 20.1235 24.7192 20.3054 24.6831C20.4872 24.6469 20.6757 24.6654 20.847 24.7364C21.0184 24.8074 21.1648 24.9275 21.2678 25.0817C21.3708 25.2359 21.4258 25.4171 21.4258 25.6025C21.4258 25.8512 21.327 26.0896 21.1512 26.2655C20.9754 26.4413 20.7369 26.54 20.4883 26.54Z" fill="white"/>
</svg>
