<svg width="206" height="205" viewBox="0 0 206 205" fill="none" xmlns="http://www.w3.org/2000/svg">
<path d="M70.9688 172.969C74.5068 172.969 77.375 170.101 77.375 166.562C77.375 163.024 74.5068 160.156 70.9688 160.156C67.4307 160.156 64.5625 163.024 64.5625 166.562C64.5625 170.101 67.4307 172.969 70.9688 172.969Z" stroke="black" stroke-width="1.5" stroke-linecap="round" stroke-linejoin="round"/>
<path d="M160.656 172.969C164.194 172.969 167.062 170.101 167.062 166.562C167.062 163.024 164.194 160.156 160.656 160.156C157.118 160.156 154.25 163.024 154.25 166.562C154.25 170.101 157.118 172.969 160.656 172.969Z" stroke="black" stroke-width="1.5" stroke-linecap="round" stroke-linejoin="round"/>
<path d="M19.7188 32.0293H45.3437L64.5625 140.936H167.062" stroke="black" stroke-width="1.5" stroke-linecap="round" stroke-linejoin="round"/>
<path d="M64.5625 115.316H164.436C165.177 115.317 165.895 115.061 166.468 114.591C167.041 114.122 167.434 113.468 167.579 112.742L179.11 55.0856C179.203 54.6207 179.192 54.141 179.077 53.681C178.962 53.2209 178.747 52.7922 178.446 52.4256C178.145 52.059 177.767 51.7637 177.338 51.5611C176.91 51.3585 176.441 51.2536 175.967 51.2539H51.75" stroke="black" stroke-width="1.5" stroke-linecap="round" stroke-linejoin="round"/>
</svg>
