<svg width="24" height="24" viewBox="0 0 24 24" fill="none" xmlns="http://www.w3.org/2000/svg">
<path d="M19 6.54545V5.90909C18.9986 5.40322 18.8036 4.91849 18.4577 4.56078C18.1118 4.20308 17.643 4.00147 17.1538 4H4.84615C4.35696 4.00147 3.88821 4.20308 3.5423 4.56078C3.19638 4.91849 3.00142 5.40322 3 5.90909V16.0909C3.00142 16.5968 3.19638 17.0815 3.5423 17.4392C3.88821 17.7969 4.35696 17.9985 4.84615 18H5.46154" stroke="#3D3D3D" stroke-width="1.5" stroke-linejoin="round"/>
<path d="M20.1604 7H7.8396C6.82362 7 6 7.79665 6 8.77938V18.2206C6 19.2033 6.82362 20 7.8396 20H20.1604C21.1764 20 22 19.2033 22 18.2206V8.77938C22 7.79665 21.1764 7 20.1604 7Z" stroke="#3D3D3D" stroke-width="1.5" stroke-linejoin="round"/>
<path d="M17 12C17.5523 12 18 11.5523 18 11C18 10.4477 17.5523 10 17 10C16.4477 10 16 10.4477 16 11C16 11.5523 16.4477 12 17 12Z" stroke="#3D3D3D" stroke-width="1.5" stroke-miterlimit="10"/>
<path d="M16 16.4415L12.4595 13.3223C12.2331 13.1236 11.9304 13.0086 11.6124 13.0005C11.2943 12.9924 10.9847 13.0918 10.7459 13.2786L6 17" stroke="#3D3D3D" stroke-width="1.5" stroke-linecap="round" stroke-linejoin="round"/>
<path d="M13 20L17.625 15.3525C17.8378 15.14 18.1208 15.0149 18.4195 15.0012C18.7181 14.9876 19.0111 15.0864 19.2419 15.2786L22 17.5884" stroke="#3D3D3D" stroke-width="1.5" stroke-linecap="round" stroke-linejoin="round"/>
</svg>
