<!DOCTYPE svg PUBLIC "-//W3C//DTD SVG 1.1//EN" "http://www.w3.org/Graphics/SVG/1.1/DTD/svg11.dtd">
<!-- Uploaded to: SVG Repo, www.svgrepo.com, Transformed by: SVG Repo Mixer Tools -->
<svg width="800px" height="800px" viewBox="0 0 20 20" version="1.1" xmlns="http://www.w3.org/2000/svg" xmlns:xlink="http://www.w3.org/1999/xlink" fill="#ffffff">
<g id="SVGRepo_bgCarrier" stroke-width="0"/>
<g id="SVGRepo_tracerCarrier" stroke-linecap="round" stroke-linejoin="round"/>
<g id="SVGRepo_iconCarrier"> <title>icon/20/icon-open-in-new</title> <desc>Created with Sketch.</desc> <defs> </defs> <g id="Output-svg" stroke="none" stroke-width="1" fill="none" fill-rule="evenodd"> <g id="out" transform="translate(-838.000000, -29.000000)" fill="#ffffff"> <path d="M855,46 L841,46 L841,32 L848,32 L848,30 L841,30 C839.89,30 839,30.9 839,32 L839,46 C839,47.1 839.89,48 841,48 L855,48 C856.1,48 857,47.1 857,46 L857,39 L855,39 L855,46 L855,46 Z M850,30 L850,32 L853.59,32 L843.76,41.83 L845.17,43.24 L855,33.41 L855,37 L857,37 L857,30 L850,30 L850,30 Z" id="path"> </path> </g> </g> </g>
</svg>