<svg width="24" height="24" viewBox="0 0 24 24" fill="none" xmlns="http://www.w3.org/2000/svg">
<path d="M9.48 3.46803C7.7864 2.65944 5.41922 2.26334 2.25 2.24928C1.95111 2.24522 1.65809 2.33238 1.41 2.49912C1.20637 2.63676 1.03968 2.82233 0.924597 3.03951C0.809512 3.25668 0.749555 3.49881 0.750002 3.74459V17.1555C0.750002 18.0621 1.395 18.746 2.25 18.746C5.58141 18.746 8.92312 19.0572 10.9247 20.9491C10.9521 20.9751 10.9865 20.9925 11.0237 20.9991C11.0608 21.0057 11.0991 21.0012 11.1338 20.9863C11.1684 20.9713 11.1979 20.9464 11.2186 20.9148C11.2393 20.8832 11.2502 20.8463 11.25 20.8085V5.00647C11.2501 4.89985 11.2273 4.79446 11.1831 4.69742C11.139 4.60038 11.0745 4.51395 10.9941 4.44397C10.5356 4.05202 10.0263 3.72374 9.48 3.46803Z" fill="black"/>
<path d="M22.59 2.49775C22.3418 2.33142 22.0487 2.24475 21.75 2.24932C18.5808 2.26338 16.2136 2.6576 14.52 3.46807C13.9737 3.72331 13.4643 4.05094 13.0055 4.44213C12.9252 4.51223 12.8609 4.5987 12.8168 4.69572C12.7728 4.79274 12.75 4.89807 12.75 5.00463V20.8076C12.75 20.8439 12.7607 20.8794 12.7807 20.9096C12.8008 20.9398 12.8293 20.9634 12.8628 20.9775C12.8962 20.9916 12.9331 20.9955 12.9687 20.9887C13.0044 20.9819 13.0372 20.9647 13.0631 20.9393C14.2664 19.744 16.3781 18.7446 21.7519 18.7451C22.1497 18.7451 22.5312 18.5871 22.8125 18.3057C23.0938 18.0244 23.2519 17.6429 23.2519 17.2451V3.7451C23.2524 3.49883 23.1923 3.25621 23.0769 3.03867C22.9615 2.82113 22.7942 2.63536 22.59 2.49775Z" fill="black"/>
</svg>
