<svg width="24" height="24" viewBox="0 0 24 24" fill="none" xmlns="http://www.w3.org/2000/svg">
<path d="M12 7.49952C12.75 4.53889 15.5827 3.02717 21.75 2.99952C21.8486 2.99915 21.9463 3.01829 22.0374 3.05585C22.1286 3.09341 22.2114 3.14864 22.2812 3.21836C22.3509 3.28808 22.4061 3.3709 22.4437 3.46206C22.4812 3.55323 22.5004 3.65092 22.5 3.74952V17.2495C22.5 17.4484 22.421 17.6392 22.2803 17.7798C22.1397 17.9205 21.9489 17.9995 21.75 17.9995C15.75 17.9995 13.432 19.2094 12 20.9995C10.5764 19.2183 8.25 17.9995 2.25 17.9995C1.78688 17.9995 1.50001 17.6222 1.50001 17.159V3.74952C1.49963 3.65092 1.51878 3.55323 1.55634 3.46206C1.5939 3.3709 1.64913 3.28808 1.71885 3.21836C1.78856 3.14864 1.87139 3.09341 1.96255 3.05585C2.05372 3.01829 2.15141 2.99915 2.25 2.99952C8.41734 3.02717 11.25 4.53889 12 7.49952Z" stroke="black" stroke-width="1.5" stroke-linecap="round" stroke-linejoin="round"/>
<path d="M12 7.49878V20.9988" stroke="black" stroke-width="1.5" stroke-linecap="round" stroke-linejoin="round"/>
</svg>
